<svg width="176" height="188" viewBox="0 0 176 188" fill="none" xmlns="http://www.w3.org/2000/svg">
<path d="M45.1951 35.9852C50.0623 34.9422 62.8676 33.2329 68.6618 32.5087L72.1384 30.3358V5.99998L83.0026 7.30368L91.2594 4.2617L99.9508 5.99998L107.773 0.785156L109.946 25.9901C119.506 24.9761 139.757 22.6005 144.277 21.2099C148.796 19.8193 157.459 16.5745 161.225 15.1259L171.22 83.7877C172.813 86.3951 176 93.7828 176 102.474C176 113.338 175.131 153.753 175.131 155.926C175.131 157.664 170.496 160.706 168.178 162.01C167.454 163.893 165.744 167.92 164.701 168.963C163.398 170.267 43.8914 187.215 38.242 187.215C32.5926 187.215 22.5976 186.78 21.2939 184.608C19.9902 182.435 17.8173 132.894 17.8173 131.156C17.8173 129.417 12.1679 77.2692 9.99508 66.8396C8.2568 58.4959 2.60741 50.9054 0 48.1531L9.99508 41.6346L8.69137 38.158C12.0231 38.3029 20.0771 38.5057 25.6395 38.158C32.5926 37.7235 39.1112 37.2889 45.1951 35.9852Z" fill="white"/>
<path d="M29.0919 180.635C29.522 180.635 29.9344 180.464 30.2385 180.161C30.5426 179.858 30.7134 179.446 30.7134 179.017C30.7134 178.588 30.5426 178.176 30.2385 177.873C29.9344 177.57 29.522 177.399 29.0919 177.399C28.6619 177.399 28.2494 177.57 27.9453 177.873C27.6412 178.176 27.4704 178.588 27.4704 179.017C27.4704 179.446 27.6412 179.858 27.9453 180.161C28.2494 180.464 28.6619 180.635 29.0919 180.635Z" fill="#151718"/>
<path d="M75.1692 16.0785C76.4664 27.7789 77.4696 39.4879 78.1787 51.2056C78.2954 53.2635 81.5385 53.2894 81.4217 51.2056C80.7212 39.4879 79.7181 27.7789 78.4122 16.0785C78.1917 14.0335 74.9486 14.0076 75.1692 16.0785Z" fill="#151718"/>
<path d="M81.5385 52.914C82.6698 51.5439 83.8873 50.247 85.1837 49.0312C85.4855 48.726 85.6547 48.3145 85.6547 47.8857C85.6547 47.4569 85.4855 47.0454 85.1837 46.7403C84.8746 46.4452 84.4634 46.2805 84.0356 46.2805C83.6079 46.2805 83.1966 46.4452 82.8876 46.7403C81.5954 47.9562 80.3822 49.2531 79.2554 50.6231C78.9503 50.9226 78.7658 51.3232 78.7365 51.7492C78.7433 52.1764 78.9153 52.5844 79.2165 52.8881C79.5193 53.191 79.9293 53.363 80.358 53.367C80.5706 53.3664 80.7809 53.3238 80.9768 53.2416C81.1728 53.1594 81.3504 53.0393 81.4996 52.8881L81.5385 52.914Z" fill="#151718"/>
<path d="M83.8216 49.1606C84.3924 49.29 84.9632 49.4453 85.521 49.6265L86.2474 49.8854L86.6625 50.0407H86.5717L86.7793 50.1313C87.8161 50.5722 88.8068 51.1141 89.7369 51.7492C90.112 51.9594 90.5542 52.0162 90.9704 51.9075C91.3866 51.7989 91.7443 51.5333 91.9681 51.1667C92.1717 50.793 92.2246 50.3559 92.1161 49.9446C92.0076 49.5333 91.7459 49.1788 91.3844 48.9535C89.3664 47.537 87.0869 46.534 84.6778 46.0025C84.2635 45.8986 83.825 45.9593 83.4547 46.1718C83.0844 46.3843 82.8113 46.7319 82.693 47.1415C82.6337 47.348 82.6159 47.5642 82.6405 47.7776C82.6652 47.991 82.7319 48.1974 82.8368 48.385C82.9416 48.5727 83.0826 48.7378 83.2516 48.8708C83.4206 49.0039 83.6143 49.1024 83.8216 49.1606Z" fill="#151718"/>
<path d="M92.2016 51.1538C92.6565 50.3813 93.1591 49.6378 93.7064 48.9276L93.4599 49.2512C93.9651 48.6001 94.5064 47.9779 95.0815 47.3874C95.2455 47.2403 95.3777 47.0613 95.47 46.8614C95.5623 46.6615 95.6128 46.445 95.6183 46.225C95.6238 46.005 95.5843 45.7861 95.5022 45.5819C95.4201 45.3777 95.297 45.1923 95.1406 45.0371C94.9842 44.8819 94.7977 44.7602 94.5926 44.6794C94.3874 44.5986 94.1679 44.5605 93.9474 44.5672C93.7269 44.574 93.5102 44.6256 93.3104 44.7188C93.1106 44.812 92.9319 44.945 92.7854 45.1094C91.4778 46.4349 90.3405 47.9174 89.3996 49.523C89.1856 49.8965 89.1268 50.3388 89.236 50.755C89.3451 51.1712 89.6135 51.5281 89.9834 51.7492C90.3572 51.9554 90.7964 52.01 91.2095 51.9015C91.6227 51.7931 91.978 51.5299 92.2016 51.1667V51.1538Z" fill="#151718"/>
<path d="M94.1215 47.5686C94.4799 47.5428 94.8398 47.5428 95.1982 47.5686H94.7701C95.3321 47.6496 95.8813 47.8018 96.4046 48.0216L96.0155 47.8533C96.5103 48.0744 96.98 48.3478 97.4165 48.6688L97.0792 48.4099C97.3448 48.6172 97.5962 48.842 97.8316 49.0829C98.1352 49.3833 98.5455 49.5518 98.9731 49.5518C99.4007 49.5518 99.811 49.3833 100.115 49.0829C100.413 48.7783 100.579 48.3696 100.579 47.9439C100.579 47.5183 100.413 47.1096 100.115 46.805C99.3424 46.0004 98.4107 45.3651 97.3789 44.9395C96.3471 44.5139 95.2377 44.3073 94.1215 44.3329C93.6915 44.3329 93.279 44.5033 92.9749 44.8067C92.6708 45.1101 92.5 45.5216 92.5 45.9507C92.5 46.3798 92.6708 46.7913 92.9749 47.0947C93.279 47.3981 93.6915 47.5686 94.1215 47.5686Z" fill="#151718"/>
<path d="M100.789 48.7464C101.942 47.9246 102.91 46.8708 103.63 45.653C103.739 45.47 103.811 45.267 103.84 45.0561C103.87 44.8451 103.857 44.6304 103.803 44.4244C103.749 44.2184 103.654 44.0252 103.524 43.8562C103.394 43.6871 103.232 43.5456 103.046 43.4398C102.853 43.3248 102.638 43.2516 102.414 43.2248C102.191 43.1981 101.964 43.2184 101.749 43.2845C101.355 43.3935 101.014 43.6419 100.789 43.9834C100.607 44.2876 100.408 44.5814 100.193 44.8635L100.452 44.527C100 45.1075 99.4771 45.6292 98.8953 46.0802L99.2196 45.8343L99.1158 45.9119C98.9334 46.0116 98.7777 46.1537 98.6618 46.3261C98.5244 46.4818 98.4265 46.6683 98.3764 46.8697C98.3155 47.085 98.2979 47.3102 98.3246 47.5324C98.3513 47.7545 98.4218 47.9692 98.5321 48.164C98.7525 48.5226 99.0996 48.7858 99.505 48.9017L99.9331 48.9664C100.22 48.9672 100.502 48.8912 100.75 48.7464H100.789Z" fill="#151718"/>
<path d="M102.826 46.4167H102.398C103.184 46.5181 103.952 46.7272 104.681 47.0379L104.292 46.8697C104.635 47.0127 104.968 47.177 105.291 47.3615C105.484 47.4765 105.699 47.5507 105.922 47.5796C106.145 47.6086 106.372 47.5916 106.588 47.5298C106.991 47.4169 107.335 47.1525 107.548 46.792C107.76 46.4193 107.818 45.9792 107.712 45.5642C107.606 45.1491 107.342 44.7913 106.977 44.5658C105.593 43.7906 104.058 43.3226 102.476 43.1939C102.259 43.187 102.043 43.2232 101.84 43.3005C101.638 43.3777 101.452 43.4944 101.295 43.6438C101.138 43.7932 101.013 43.9722 100.926 44.1705C100.839 44.3688 100.793 44.5824 100.789 44.7988C100.788 45.0131 100.83 45.2254 100.912 45.4232C100.995 45.621 101.116 45.8004 101.269 45.9507C101.583 46.2351 101.987 46.4001 102.411 46.4167H102.826Z" fill="#151718"/>
<path d="M107.924 45.6789C105.329 34.2374 105.459 22.4723 105.589 10.8107C105.589 10.3816 105.418 9.9701 105.114 9.6667C104.81 9.36329 104.397 9.19283 103.967 9.19283C103.537 9.19283 103.125 9.36329 102.821 9.6667C102.517 9.9701 102.346 10.3816 102.346 10.8107C102.203 22.77 102.151 34.8198 104.798 46.5461C105.265 48.5781 108.391 47.711 107.924 45.6789Z" fill="#151718"/>
<path d="M102.437 9.82704L98.545 15.276C98.4313 15.4695 98.3587 15.6843 98.332 15.907C98.3052 16.1297 98.3247 16.3555 98.3894 16.5703C98.5025 16.9729 98.7675 17.3161 99.1288 17.5281C99.5004 17.7388 99.9394 17.7971 100.353 17.6909C100.767 17.5846 101.124 17.322 101.347 16.9586L105.239 11.4967C105.352 11.3033 105.426 11.089 105.455 10.8667C105.484 10.6443 105.468 10.4184 105.407 10.2024C105.294 9.8037 105.035 9.46196 104.681 9.24461C104.306 9.04154 103.868 8.98873 103.456 9.09697C103.044 9.20521 102.688 9.46633 102.463 9.82704H102.437Z" fill="#151718"/>
<path d="M100.439 14.8618L94.368 11.2637C93.9949 11.0541 93.5547 10.9978 93.1406 11.1065C92.7265 11.2152 92.3711 11.4805 92.1497 11.8461C91.9397 12.2184 91.8832 12.6576 91.9922 13.0708C92.1012 13.4839 92.367 13.8385 92.7335 14.0594L98.8045 17.6575C98.9885 17.7646 99.1918 17.8345 99.4028 17.8631C99.6139 17.8918 99.8285 17.8788 100.035 17.8247C100.24 17.7706 100.434 17.6765 100.603 17.5479C100.773 17.4193 100.915 17.2586 101.023 17.0751C101.13 16.8915 101.2 16.6886 101.229 16.4781C101.258 16.2675 101.244 16.0533 101.19 15.8478C101.136 15.6423 101.042 15.4495 100.913 15.2803C100.784 15.1111 100.623 14.9689 100.439 14.8618Z" fill="#151718"/>
<path d="M91.7087 11.7814C91.2701 12.3064 90.8793 12.8695 90.5412 13.464C90.209 14.0592 89.9312 14.6829 89.711 15.3278C89.649 15.5436 89.632 15.7697 89.661 15.9923C89.69 16.2149 89.7644 16.4293 89.8796 16.6221C90.092 16.9825 90.4361 17.2469 90.8396 17.3598C91.0558 17.4216 91.2825 17.4386 91.5056 17.4097C91.7287 17.3807 91.9435 17.3065 92.1368 17.1916C92.4889 16.9694 92.7508 16.6301 92.8762 16.2338C92.9426 16.0268 93.0206 15.8238 93.1097 15.6255L92.941 16.0138C93.2519 15.2891 93.6528 14.6064 94.1345 13.9817L93.875 14.2147L94.0177 14.0205C94.1763 13.8827 94.2931 13.7034 94.355 13.5028C94.4533 13.3247 94.5025 13.1237 94.4977 12.9204C94.4916 12.4892 94.3198 12.0769 94.0177 11.7685C93.7136 11.4692 93.3034 11.3018 92.8762 11.3025C92.664 11.2977 92.4532 11.3366 92.2568 11.4168C92.0603 11.497 91.8826 11.6167 91.7346 11.7685L91.7087 11.7814Z" fill="#151718"/>
<path d="M92.0589 14.6547L88.4008 11.419C88.0935 11.1229 87.6863 10.9521 87.2592 10.9401C86.8271 10.9463 86.4138 11.1177 86.1047 11.419C85.806 11.7258 85.6388 12.1367 85.6388 12.5645C85.6388 12.9922 85.806 13.4031 86.1047 13.7099L89.7629 16.9456C90.0768 17.2379 90.4881 17.4039 90.9174 17.4116C91.344 17.4096 91.7532 17.2426 92.0589 16.9456C92.3632 16.6387 92.5355 16.2254 92.5389 15.7937C92.5348 15.366 92.3625 14.9569 92.0589 14.6547Z" fill="#151718"/>
<path d="M85.8842 11.3543C84.0255 12.3199 82.3171 13.5494 80.8121 15.0042C80.5368 15.3132 80.3904 15.7156 80.4032 16.1289C80.416 16.5421 80.5868 16.9348 80.8806 17.2263C81.1745 17.5179 81.569 17.6861 81.9832 17.6965C82.3975 17.7068 82.8 17.5586 83.1081 17.2822C83.6515 16.7636 84.2231 16.2753 84.8205 15.8196L84.4832 16.0655C85.4397 15.3625 86.4553 14.7432 87.5187 14.2147C87.8877 13.9961 88.1558 13.6415 88.265 13.2274C88.3742 12.8133 88.3158 12.373 88.1024 12.0014C87.8788 11.6383 87.5234 11.3751 87.1103 11.2666C86.6972 11.1582 86.258 11.2127 85.8842 11.419V11.3543Z" fill="#151718"/>
<path d="M83.0303 15.1854C81.5696 13.4958 79.8748 12.0228 77.9971 10.8107C77.6247 10.5978 77.1834 10.5395 76.7684 10.6485C76.3533 10.7575 75.9979 11.0249 75.7788 11.3931C75.5688 11.7654 75.5123 12.2046 75.6213 12.6178C75.7302 13.0309 75.9961 13.3855 76.3626 13.6064C76.8728 13.9429 77.3658 14.2923 77.8414 14.6547L77.5171 14.4088C78.6913 15.3195 79.7692 16.3473 80.7342 17.4763C80.9626 17.6988 81.2514 17.8497 81.5647 17.9103C81.8781 17.971 82.2024 17.9388 82.4976 17.8176C82.7929 17.6965 83.0461 17.4918 83.226 17.2287C83.406 16.9657 83.5048 16.6558 83.5103 16.3373C83.492 15.9088 83.3219 15.5006 83.0303 15.1854Z" fill="#151718"/>
<path d="M75.5583 12.2344C75.4631 14.1156 75.4978 16.0011 75.6621 17.8775C75.6757 18.3047 75.8412 18.713 76.1291 19.0295C76.4395 19.3272 76.853 19.4941 77.2836 19.4954C77.7126 19.492 78.1231 19.3205 78.4265 19.0178C78.7298 18.7151 78.9017 18.3056 78.9051 17.8775C78.7408 16.0011 78.7061 14.1156 78.8014 12.2344C78.798 11.8064 78.626 11.3968 78.3227 11.0942C78.0193 10.7915 77.6088 10.6199 77.1798 10.6166C76.7529 10.6264 76.3462 10.8001 76.0442 11.1013C75.7422 11.4026 75.5682 11.8084 75.5583 12.2344Z" fill="#151718"/>
<path d="M78.1138 33.875C58.3727 40.594 37.5771 43.6984 16.7294 43.0386C14.6409 42.9739 14.6409 46.2096 16.7294 46.2743C37.8753 46.9416 58.9685 43.7979 78.9959 36.9942C80.9548 36.3212 80.1115 33.202 78.1268 33.875H78.1138Z" fill="#151718"/>
<path d="M14.9911 45.0706C18.4677 62.3882 19.5963 80.0165 20.9583 97.6318C22.3204 115.247 23.6306 132.811 24.3311 150.439C24.7073 159.952 24.7981 169.569 27.4185 178.797C27.4756 179.002 27.5725 179.193 27.7038 179.361C27.8351 179.528 27.9981 179.668 28.1836 179.773C28.3691 179.877 28.5735 179.944 28.7849 179.97C28.9964 179.996 29.2109 179.98 29.4162 179.923C29.6215 179.866 29.8135 179.769 29.9813 179.638C30.1491 179.507 30.2894 179.345 30.3942 179.16C30.499 178.974 30.5663 178.771 30.5921 178.56C30.6179 178.349 30.6019 178.135 30.5448 177.93C28.2098 169.711 27.9504 161.104 27.665 152.678C27.3277 143.765 26.8607 134.856 26.264 125.951C25.1354 108.452 23.8771 91.0051 22.2166 73.4933C21.3581 63.6702 19.9898 53.8981 18.1174 44.2164C17.7023 42.1714 14.576 43.0386 14.9911 45.0706Z" fill="#151718"/>
<path d="M28.6898 180.428C36.8752 181.722 45.0218 180.428 52.9997 178.551C60.9776 176.674 69.0333 174.345 76.9723 172.002C92.8503 167.317 108.521 162.031 123.984 156.147C132.632 152.859 141.193 149.408 149.668 145.792C151.575 144.977 149.928 142.181 148.034 142.997C118.513 155.671 88.0816 166.119 56.9951 174.254C48.0832 176.584 38.834 178.875 29.5589 177.36C27.5093 177.024 26.6402 180.143 28.6898 180.479V180.428Z" fill="#151718"/>
<path d="M148.19 145.559C149.748 147.127 151.422 148.577 153.197 149.895C155.043 151.495 157.191 152.709 159.514 153.468C163.406 154.412 166.169 151.824 167.298 148.394C167.84 146.555 168.183 144.663 168.322 142.751C168.651 140.041 168.915 137.336 169.114 134.636C169.477 129.64 169.654 124.639 169.646 119.635C169.646 99.1203 166.805 78.7481 163.549 58.5313C161.72 47.1027 159.657 35.687 157.971 24.2325C157.659 22.1875 154.533 23.0547 154.844 25.0997C160.526 62.3365 169.114 99.871 165.611 137.703C165.378 140.292 165.183 142.88 164.703 145.391C164.418 146.918 163.99 148.847 162.693 149.857C160.669 151.436 157.828 149.209 156.206 148.045C154.153 146.611 152.234 144.995 150.473 143.217C150.163 142.942 149.76 142.796 149.346 142.809C148.931 142.822 148.538 142.992 148.246 143.285C147.953 143.578 147.785 143.972 147.774 144.385C147.764 144.799 147.913 145.2 148.19 145.508V145.559Z" fill="#151718"/>
<path d="M156.064 22.4593C148.28 26.0575 140.043 27.0152 131.65 27.8436L105.809 30.4322C103.747 30.6393 103.721 33.875 105.809 33.6679L132.921 31.0017C141.509 30.1604 149.785 28.9696 157.698 25.3068C159.592 24.4137 157.945 21.631 156.064 22.5111V22.4593Z" fill="#151718"/>
<path d="M29.8184 180.803C48.8356 182.253 67.6972 178.59 86.2734 175.005C105.394 171.329 124.619 168.417 143.948 166.087C150.992 165.246 161.162 165.116 164.119 157.182C164.183 156.942 164.19 156.69 164.141 156.447C164.092 156.203 163.988 155.974 163.836 155.776C163.685 155.579 163.49 155.419 163.267 155.308C163.044 155.197 162.799 155.139 162.55 155.137C135.595 158.204 108.856 162.929 82.4855 169.284C75.0394 171.087 67.6237 173.02 60.2382 175.082C59.8236 175.197 59.4718 175.472 59.2601 175.846C59.0485 176.219 58.9943 176.662 59.1096 177.075C59.2248 177.489 59.5 177.84 59.8747 178.051C60.2493 178.262 60.6927 178.316 61.1073 178.202C86.9951 170.98 113.305 165.361 139.887 161.376C147.429 160.237 154.983 159.24 162.55 158.386L160.993 156.341C159.878 159.331 156.699 160.664 153.82 161.415C149.929 162.228 145.991 162.79 142.028 163.097C132.947 164.197 123.945 165.401 114.916 166.76C96.7549 169.517 78.8014 173.71 60.6014 176.247C50.4164 177.777 40.0962 178.211 29.8184 177.541C27.7428 177.386 27.7428 180.622 29.8184 180.777V180.803Z" fill="#151718"/>
<path d="M88.8937 173.167C111.777 166.048 136.346 167.679 159.164 160.353C160.812 159.823 160.643 156.962 158.736 157.169C145.323 158.593 131.987 160.556 118.73 163.058C116.68 163.447 117.549 166.566 119.586 166.19C132.558 163.74 145.608 161.82 158.736 160.431L158.308 157.26C135.477 164.586 110.908 162.955 88.0376 170.073C86.0528 170.695 86.896 173.827 88.8937 173.193V173.167Z" fill="#151718"/>
<path d="M146.075 160.923C152.175 161.155 158.251 160.046 163.873 157.674C166.169 156.864 168.074 155.218 169.205 153.066C170.333 150.478 170.139 147.371 170.307 144.653C171.099 132.138 171.721 119.544 170.619 107.015C170.039 100.013 168.806 93.0803 166.934 86.3068C166.81 85.9052 166.535 85.5676 166.165 85.3653C165.796 85.1631 165.363 85.112 164.957 85.223C164.55 85.334 164.203 85.5983 163.989 85.96C163.775 86.3217 163.71 86.7524 163.808 87.161C166.728 98.2332 168.129 109.649 167.972 121.097C167.972 126.831 167.765 132.552 167.453 138.273C167.298 141.133 167.116 143.993 166.934 146.841C166.766 149.429 166.934 152.16 164.444 153.791C161.788 155.346 158.868 156.399 155.83 156.897C152.626 157.578 149.349 157.861 146.075 157.739C143.987 157.661 144 160.897 146.075 160.975V160.923Z" fill="#151718"/>
<path d="M16.6516 45.4848C26.3029 47.8663 36.3434 45.2777 45.8909 43.5434L76.5701 38.0297C78.6197 37.6543 77.7506 34.5351 75.714 34.9104L46.306 40.1911C36.992 41.8737 26.9515 44.6823 17.5337 42.3655C15.51 41.8737 14.6409 44.9541 16.6645 45.4848H16.6516Z" fill="#151718"/>
<path d="M14.8484 43.9834C17.0797 66.1848 19.4536 88.3733 21.9702 110.549C22.2037 112.594 25.4467 112.62 25.2132 110.549C22.6966 88.4165 20.3227 66.228 18.0915 43.9834C17.8839 41.9255 14.6409 41.8996 14.8484 43.9834Z" fill="#151718"/>
<path d="M167.207 86.9798L166.792 80.6378C166.782 80.2118 166.608 79.806 166.306 79.5047C166.004 79.2034 165.597 79.0298 165.17 79.0199C164.741 79.0233 164.331 79.1948 164.027 79.4975C163.724 79.8002 163.552 80.2097 163.549 80.6378L163.964 86.9798C163.964 87.4089 164.135 87.8204 164.439 88.1238C164.743 88.4272 165.155 88.5977 165.585 88.5977C166.015 88.5977 166.428 88.4272 166.732 88.1238C167.036 87.8204 167.207 87.4089 167.207 86.9798Z" fill="#151718"/>
<path d="M16.6645 47.1027L9.98387 48.0345C9.78145 48.0888 9.59209 48.1832 9.42714 48.3122C9.26219 48.4412 9.12504 48.6021 9.02393 48.7852C8.90652 48.9771 8.83084 49.1915 8.80178 49.4145C8.77273 49.6375 8.79096 49.864 8.85529 50.0795C8.96792 50.4857 9.23262 50.8332 9.5947 51.0502C9.99593 51.25 10.4528 51.3093 10.8919 51.2185L17.6245 50.2737C18.0363 50.1588 18.3859 49.8862 18.5973 49.5153C18.8087 49.1444 18.8647 48.7053 18.7531 48.2934C18.6398 47.8838 18.3695 47.5351 18.0007 47.3227C17.6027 47.1124 17.1421 47.0527 16.7035 47.1544L16.6645 47.1027Z" fill="#151718"/>
<path d="M9.07581 50.8949C12.2021 54.7778 13.4864 59.6443 14.2647 64.4462C15.056 69.8822 15.3025 75.3959 15.8343 80.8578C17.0278 92.9379 18.6104 104.94 20.5822 116.865C21.6545 123.664 22.8782 130.434 24.2533 137.172C24.6684 139.217 27.7947 138.35 27.3796 136.318C24.8803 124.005 22.7961 111.619 21.127 99.1591C20.3227 93.1191 19.6179 87.0186 19.0125 80.8578C18.4677 75.2794 18.1823 69.6622 17.391 64.032C16.5997 58.4018 14.9911 53.0435 11.3719 48.604C10.0747 46.9862 7.7786 49.29 9.07581 50.8949Z" fill="#151718"/>
<path d="M18.9736 60.1362L17.6764 54.1954C17.3132 52.5516 16.47 50.196 14.3036 50.4549L15.9251 52.0727L15.8473 50.6878C15.8439 50.2598 15.672 49.8503 15.3686 49.5476C15.0653 49.2449 14.6548 49.0734 14.2258 49.07C13.7965 49.0731 13.3851 49.242 13.0779 49.5413C12.7708 49.8405 12.5917 50.2468 12.5783 50.6749L12.6561 52.0598C12.6561 52.8493 13.3696 53.7812 14.2777 53.6777C14.6409 53.6777 14.4204 53.6777 14.1998 53.6129C13.9793 53.5482 13.8626 53.38 14.122 53.6129C13.8885 53.3929 14.122 53.6129 14.122 53.6906C14.122 53.7683 14.2517 54.0401 14.122 53.7812C14.3555 54.506 14.4852 55.2567 14.6539 56.0074L15.7435 60.9904C15.8676 61.3919 16.1434 61.7296 16.5125 61.9318C16.8817 62.1341 17.3152 62.1851 17.7214 62.0742C18.1276 61.9632 18.4745 61.6989 18.6889 61.3372C18.9032 60.9755 18.9681 60.5448 18.8698 60.1362H18.9736Z" fill="#151718"/>
<path d="M151.381 147.32L132.571 155.642C126.5 158.334 120.468 161.22 114.215 163.408C108.129 165.624 101.788 167.072 95.3409 167.718C89.5683 168.261 83.5492 167.964 78.3473 170.902C78.1283 171.028 77.9413 171.203 77.801 171.413C77.6607 171.623 77.5707 171.863 77.5381 172.113C77.5055 172.363 77.5311 172.618 77.6129 172.857C77.6948 173.095 77.8307 173.312 78.0101 173.49C79.5797 174.785 81.305 174.785 83.1989 174.396C85.7934 173.969 88.3878 173.413 90.8525 172.778C91.0578 172.722 91.2498 172.625 91.4176 172.494C91.5855 172.363 91.7258 172.2 91.8306 172.015C91.9354 171.83 92.0026 171.626 92.0284 171.415C92.0543 171.204 92.0382 170.99 91.9811 170.785C91.924 170.58 91.8271 170.389 91.6958 170.221C91.5645 170.054 91.4015 169.914 91.216 169.809C91.0305 169.705 90.8262 169.638 90.6147 169.612C90.4032 169.586 90.1887 169.602 89.9834 169.659C88.2711 170.086 86.5328 170.488 84.7945 170.824C83.7827 171.031 81.1753 171.976 80.2672 171.199L79.9429 173.788C85.2485 170.798 91.8514 171.51 97.7019 170.772C104.028 169.996 110.242 168.48 116.213 166.255C122.336 163.964 128.251 161.169 134.219 158.489L153.067 150.115C154.974 149.261 153.327 146.478 151.433 147.32H151.381Z" fill="#151718"/>
<path d="M96.4324 73.6695C89.2256 73.6154 80.8723 76.9167 77.0069 83.2594C76.0435 84.8517 75.5511 86.6804 75.5858 88.5368C75.6206 90.3933 76.1811 92.2026 77.2034 93.7584C79.2999 97.1354 82.7832 99.2244 86.1573 101.151C86.5323 101.369 86.9794 101.431 87.4002 101.322C87.8211 101.214 88.1811 100.944 88.4012 100.572C88.6213 100.2 88.6834 99.757 88.5739 99.3399C88.4643 98.9228 88.1921 98.5658 87.817 98.3477C85.0654 96.7782 82.0516 95.1005 80.2499 92.4596C79.3567 91.2752 78.8741 89.8361 78.8741 88.3574C78.8741 86.8786 79.3567 85.4396 80.2499 84.2552C83.7878 79.3412 90.5359 76.8734 96.4324 76.9167C96.8668 76.9167 97.2834 76.7456 97.5906 76.4411C97.8977 76.1367 98.0703 75.7237 98.0703 75.2931C98.0703 74.8625 97.8977 74.4495 97.5906 74.1451C97.2834 73.8406 96.8668 73.6695 96.4324 73.6695Z" fill="#151718"/>
<path d="M86.0809 99.1811C76.0723 108.22 67.9158 119.087 62.0583 131.187C61.152 133.059 63.9692 134.705 64.8864 132.821C70.6095 120.952 78.5965 110.293 88.4067 101.432C89.9681 100.025 87.6423 97.7307 86.0809 99.1378V99.1811Z" fill="#151718"/>
<path d="M62.091 132.832C63.035 134.4 64.3133 135.745 65.8364 136.772C66.2176 136.986 66.6682 137.044 67.0921 136.934C67.5026 136.816 67.8534 136.55 68.0748 136.188C68.1874 136 68.26 135.793 68.2881 135.577C68.3163 135.361 68.2995 135.141 68.2386 134.932C68.1101 134.533 67.8432 134.192 67.4852 133.969L66.9829 133.601L67.3323 133.86C66.6195 133.313 65.9809 132.676 65.4324 131.966L65.6835 132.302C65.411 131.956 65.1594 131.595 64.9301 131.219C64.7086 130.857 64.3578 130.59 63.9473 130.473C63.522 130.366 63.0713 130.428 62.6916 130.646C62.3218 130.848 62.0472 131.186 61.9272 131.587C61.8184 132.008 61.8771 132.454 62.091 132.832Z" fill="#151718"/>
<path d="M68.0421 136.718C71.0778 134.365 73.7041 131.535 75.8167 128.34C75.9343 128.156 76.0133 127.95 76.0489 127.735C76.0844 127.519 76.0758 127.299 76.0236 127.087C75.9715 126.875 75.8767 126.676 75.7451 126.501C75.6134 126.326 75.4476 126.18 75.2574 126.07C75.0673 125.96 74.8568 125.889 74.6384 125.862C74.4201 125.834 74.1984 125.851 73.9866 125.91C73.7749 125.969 73.5773 126.07 73.4059 126.207C73.2344 126.344 73.0924 126.514 72.9885 126.706C72.7265 127.096 72.4644 127.474 72.1914 127.853C72.0604 128.026 71.9403 128.2 71.8093 128.362L71.6018 128.643C71.0231 129.358 70.4443 130.05 69.811 130.722C68.5618 132.053 67.2071 133.284 65.7599 134.402C65.4559 134.707 65.2854 135.12 65.2854 135.549C65.2854 135.978 65.4559 136.39 65.7599 136.696C66.0766 136.986 66.4918 137.147 66.9228 137.147C67.3539 137.147 67.7691 136.986 68.0858 136.696L68.0421 136.718Z" fill="#151718"/>
<path d="M73.0977 129.065L76.1333 130.505C77.0963 131.059 78.118 131.505 79.1798 131.836C79.6465 131.958 80.1354 131.968 80.607 131.867C81.0786 131.766 81.5195 131.557 81.8939 131.255C82.2683 130.954 82.5658 130.569 82.762 130.132C82.9583 129.695 83.0478 129.218 83.0234 128.741C82.9857 127.886 82.6931 127.061 82.1826 126.37C81.9097 125.959 80.7085 124.866 80.8505 124.325C80.8505 124.411 80.8505 124.325 81.0689 124.249C81.2919 124.232 81.5157 124.266 81.724 124.346C82.598 124.789 83.4374 125.295 84.2355 125.862C85.001 126.344 85.8992 126.578 86.8052 126.532C87.7111 126.485 88.58 126.16 89.2912 125.602C90.7107 124.314 90.5032 122.203 89.7061 120.645C89.1653 119.931 88.7245 119.148 88.3958 118.317C88.3359 118.142 88.3359 117.952 88.3958 117.776C88.3958 117.776 88.2101 117.776 88.3958 117.863C89.6842 118.285 90.7107 119.27 92.152 119.194C94.3905 119.086 95.264 116.889 94.9255 114.973C94.4381 112.824 93.3435 110.857 91.7698 109.301C90.3285 107.764 88.0136 110.07 89.4549 111.596C90.5679 112.691 91.3539 114.069 91.7262 115.579C91.8026 116.001 91.6497 115.98 91.9882 115.958C91.6606 115.958 91.0382 115.514 90.6888 115.33C90.1242 114.945 89.47 114.71 88.7878 114.645C88.1057 114.581 87.4183 114.69 86.7906 114.962C86.1197 115.387 85.6032 116.013 85.3164 116.749C85.0296 117.485 84.9876 118.292 85.1964 119.053C85.4066 119.802 85.7386 120.511 86.1791 121.153C86.4958 121.64 87.1728 122.409 87.0745 123.047C87.0745 123.307 86.9107 123.351 86.474 123.275C85.7858 123.071 85.1494 122.724 84.6067 122.257C83.9788 121.757 83.2468 121.4 82.4634 121.213C81.6799 121.026 80.8643 121.013 80.0752 121.175C79.2989 121.37 78.6214 121.839 78.1707 122.495C77.72 123.152 77.5274 123.949 77.6293 124.736C77.7777 125.665 78.1777 126.537 78.7867 127.258C79.056 127.577 79.304 127.913 79.5292 128.265C79.4746 128.167 79.7804 128.849 79.7585 128.838C79.7367 128.827 80.0752 128.838 79.9879 128.687C79.7968 128.603 79.5997 128.535 79.3982 128.481C78.9068 128.275 78.4373 128.016 77.9678 127.788L74.692 126.251C72.8029 125.342 71.1432 128.135 73.0431 129.055L73.0977 129.065Z" fill="#151718"/>
<path d="M91.7152 111.812L97.033 105.881C97.1939 105.732 97.323 105.553 97.4125 105.354C97.502 105.155 97.5501 104.94 97.554 104.722C97.5579 104.504 97.5174 104.287 97.4351 104.085C97.3527 103.883 97.2301 103.699 97.0745 103.545C96.919 103.391 96.7337 103.269 96.5298 103.188C96.3259 103.106 96.1074 103.066 95.8875 103.07C95.6676 103.074 95.4507 103.121 95.2498 103.21C95.0488 103.299 94.868 103.427 94.7181 103.586L89.4003 109.518C89.2394 109.666 89.1103 109.846 89.0208 110.045C88.9313 110.244 88.8832 110.459 88.8793 110.677C88.8754 110.895 88.9159 111.111 88.9982 111.314C89.0806 111.516 89.2032 111.699 89.3588 111.854C89.5143 112.008 89.6996 112.129 89.9035 112.211C90.1075 112.293 90.3259 112.333 90.5458 112.329C90.7657 112.325 90.9826 112.277 91.1836 112.189C91.3845 112.1 91.5653 111.972 91.7152 111.812Z" fill="#151718"/>
<path d="M95.2094 105.221C97.0778 106.616 99.2318 107.589 101.52 108.071C103.808 108.552 106.175 108.532 108.454 108.009C110.734 107.487 112.87 106.477 114.713 105.049C116.556 103.621 118.061 101.81 119.123 99.7439C123.578 90.7602 119.723 80.2612 111.184 75.3039C108.576 73.8278 105.697 72.8835 102.715 72.5267C99.7337 72.1698 96.7102 72.4075 93.8227 73.2258C93.4365 73.3686 93.1183 73.6497 92.9307 74.0136C92.7432 74.3774 92.7 74.7978 92.8096 75.1916C92.9193 75.5855 93.1738 75.9244 93.523 76.1416C93.8722 76.3587 94.2908 76.4383 94.6962 76.3646C102.897 74.135 112.222 77.263 116.207 85.0236C119.712 91.8426 117.114 101.487 109.59 104.355C107.622 105.149 105.482 105.435 103.371 105.185C101.261 104.935 99.2488 104.158 97.5243 102.926C95.8864 101.649 93.5497 103.933 95.2094 105.221Z" fill="#151718"/>
<path d="M106.227 84.1469C106.642 78.2155 107.385 69.892 113.871 67.2186C115.084 66.6526 116.444 66.4695 117.766 66.6941C119.088 66.9186 120.309 67.5399 121.263 68.4741C122.126 69.4098 122.765 70.5264 123.131 71.7409C123.498 72.9553 123.584 74.2362 123.381 75.4879C122.857 78.9082 120.652 81.7873 118.096 84.0279C116.524 85.4133 118.839 87.7079 120.411 86.3225C123.349 83.9028 125.449 80.6328 126.417 76.9708C126.819 75.2836 126.847 73.5301 126.498 71.8313C126.149 70.1326 125.432 68.5292 124.397 67.132C123.298 65.6972 121.81 64.6017 120.107 63.9732C118.403 63.3446 116.555 63.2089 114.777 63.5818C112.931 64.0025 111.201 64.817 109.705 65.9685C108.21 67.12 106.986 68.5808 106.118 70.2492C103.737 74.4921 103.312 79.3953 102.951 84.1469C102.798 86.2359 106.074 86.2251 106.227 84.1469Z" fill="#151718"/>
<path d="M102.984 79.2438C100.516 78.3562 97.6008 77.6635 95.3405 79.3845C93.0802 81.1054 93.102 84.2335 94.5324 86.5606C97.0439 90.6736 102.897 93.2172 107.526 91.1932C110.136 90.035 111.796 86.7122 110.093 84.1361C109.866 83.7731 109.507 83.51 109.091 83.4013C108.674 83.2925 108.232 83.3464 107.854 83.5516C107.481 83.7706 107.211 84.126 107.1 84.5412C106.99 84.9564 107.049 85.398 107.264 85.7705C107.264 85.7705 107.483 86.171 107.417 86.0194C107.417 86.0844 107.516 86.474 107.494 86.2792C107.52 86.5386 107.49 86.8006 107.406 87.0477C107.275 87.3376 107.086 87.5977 106.849 87.8118C106.612 88.0259 106.334 88.1895 106.031 88.2924C104.554 88.7885 102.947 88.7463 101.499 88.1734C100.031 87.6648 98.7368 86.7571 97.7646 85.554C97.3303 85.0036 97.0077 84.3751 96.8146 83.7031C96.7182 83.3988 96.6957 83.0761 96.7491 82.7615C96.7881 82.5424 96.8905 82.3394 97.0439 82.177C97.2486 81.9946 97.4807 81.8449 97.7318 81.7332C98.0776 81.5928 98.4505 81.53 98.8237 81.5492C99.9824 81.6263 101.118 81.9085 102.176 82.3826C102.596 82.4928 103.042 82.4355 103.42 82.223C103.798 82.0106 104.076 81.6599 104.196 81.2462C104.301 80.8303 104.241 80.3901 104.028 80.0172C103.814 79.6443 103.464 79.3673 103.05 79.2438H102.984Z" fill="#151718"/>
</svg>
